<?xml version="1.0" encoding="utf-8"?>
<!-- Generator: Adobe Illustrator 28.1.0, SVG Export Plug-In . SVG Version: 6.00 Build 0)  -->
<svg version="1.1" id="Layer_2_00000085216859391927069870000005719724050573663926_"
	 xmlns="http://www.w3.org/2000/svg" xmlns:xlink="http://www.w3.org/1999/xlink" x="0px" y="0px" viewBox="0 0 553.9 108.5"
	 style="enable-background:new 0 0 553.9 108.5;" xml:space="preserve">
<style type="text/css">
	.st0{fill:#FFFFFF;}
</style>
<g id="Layer_1-2">
	<path d="M152.3,87.5c-12.9,0-21.7-7.1-23.4-19.9c-0.4-3,1.4-4.7,4.3-4.7h0.5c2.8,0,4.2,1.5,4.8,4.4c1.5,7.2,6.7,10.9,13.8,10.9
		s13.6-3.7,13.6-11.1s-7.2-9.2-15.2-11c-9.8-2.2-20.7-4.7-20.7-19.2S138.2,17,152.2,17s21.2,6.9,22.8,19.2c0.4,3-1.4,4.7-4.4,4.7
		h-0.3c-2.8,0-4.2-1.5-4.9-4.3c-1.6-6.5-6.2-10.5-13.2-10.5s-12.5,3.8-12.5,10.8s7.3,9.4,15.3,11.2c9.8,2.1,20.7,4.5,20.7,18.8
		S166.7,87.5,152.3,87.5L152.3,87.5L152.3,87.5z"/>
	<path d="M187.7,87.5c-2.9,0-4.5-1.6-4.5-4.5V35.8c0-2.9,1.6-4.5,4.4-4.5s4.4,1.5,4.4,4.5v4.1c1.6-3.7,6.8-8.6,15.3-8.6
		s18.3,7.8,18.3,21.8V83c0,2.9-1.6,4.5-4.5,4.5h-0.4c-2.9,0-4.5-1.6-4.5-4.5V54.2c0-9.4-3-15.1-11.9-15.1s-11.8,4.9-11.8,15.6V83
		c0,2.9-1.6,4.5-4.5,4.5H187.7z"/>
	<path d="M232.1,65.5V53.2c0-14.4,7.4-21.9,18.2-21.9s13.7,5,15.3,8.6v-4.1c0-2.9,1.6-4.5,4.4-4.5s4.4,1.6,4.4,4.5V83
		c0,2.9-1.6,4.5-4.4,4.5s-4.4-1.4-4.4-4.5v-4.1c-1.6,3.7-6.7,8.6-15.3,8.6S232.1,79.7,232.1,65.5z M265.1,64.2V54
		c0-9.8-4.4-14.9-11.8-14.9s-11.8,5.3-11.8,15.3v9.8c0,10.2,4,15.5,11.8,15.5S265.1,74.3,265.1,64.2z"/>
	<path d="M287.8,106.5c-2.9,0-4.5-1.6-4.5-4.5V35.8c0-2.9,1.6-4.5,4.4-4.5s4.4,1.4,4.4,3.9v4.7c2.1-4.1,5.9-8.6,15.3-8.6
		s18.3,7.7,18.3,22v12.4c0,14-7,21.8-18.3,21.8s-13.1-3.9-14.7-7.6V102c0,2.9-1.6,4.5-4.5,4.5H287.8L287.8,106.5z M316.4,64.4v-9.9
		c0-10-4.1-15.5-11.9-15.5s-11.8,5.4-11.8,15.5v10.4c0,9.7,4.4,14.8,11.8,14.8S316.4,74.1,316.4,64.4z"/>
	<path d="M339.3,87.5c-2.9,0-4.5-1.6-4.5-4.5V39.5H333c-2.8,0-4.2-1.4-4.2-3.8v-0.3c0-2.6,1.3-4,4.2-4h1.8c0.1-7.8,1.5-13,4.8-16
		c3.9-3.5,8.8-3.4,11.5-3.4c3,0,4.1,0.8,4.5,1.4c0.7,1,0.7,2.5,0.7,2.8c0,0.5-0.1,1.5-0.7,2.4c-0.8,1.1-2.3,1.5-3.9,1.5
		c-6.1,0-7.5,1.8-7.5,11.3h7.2c2.9,0,4.2,1.4,4.2,4v0.4c0,2.4-1.5,3.7-4.2,3.7h-7.2V83c0,2.9-1.6,4.5-4.5,4.5H339.3z"/>
	<path d="M365.3,87.5c-2.9,0-4.5-1.6-4.5-4.5V35.8c0-2.9,1.6-4.5,4.4-4.5s4.4,1.6,4.4,4.5v6.4c1.2-4.8,5.6-10.9,13-10.9
		s5.9,1.2,5.9,4.5v0.3c0,3-2.2,4.5-5.3,4.5c-9.2,0-13.1,5.1-13.1,15.1V83c0,2.9-1.6,4.5-4.5,4.5H365.3z"/>
	<path d="M387.9,65.5V53.2c0-14.4,7.4-21.9,18.2-21.9s13.7,5,15.3,8.6v-4.1c0-2.9,1.6-4.5,4.4-4.5s4.4,1.6,4.4,4.5V83
		c0,2.9-1.6,4.5-4.4,4.5s-4.4-1.4-4.4-4.5v-4.1c-1.6,3.7-6.7,8.6-15.3,8.6S387.9,79.7,387.9,65.5z M421,64.2V54
		c0-9.8-4.4-14.9-11.8-14.9s-11.8,5.3-11.8,15.3v9.8c0,10.2,4,15.5,11.8,15.5S421,74.3,421,64.2z"/>
	<path d="M443.7,87.5c-2.9,0-4.5-1.6-4.5-4.5V35.8c0-2.9,1.5-4.5,4.4-4.5s4.4,1.6,4.4,4.4v2.9c1.4-2.9,5.3-7.3,12.8-7.3
		s11.2,2.9,14,9c1.9-4.6,7.3-9,15.1-9S505,38.6,505,51.2V83c0,2.9-1.6,4.5-4.5,4.5h-0.4c-2.9,0-4.5-1.6-4.5-4.5V49.5
		c0-6.9-3.2-10.8-9.4-10.8s-9.4,3.7-9.4,10.4V83c0,2.9-1.6,4.5-4.5,4.5h-0.4c-2.9,0-4.5-1.6-4.5-4.5V49.5c0-7.3-3.5-10.8-9.4-10.8
		s-9.5,3.6-9.5,10.4V83c0,2.9-1.6,4.5-4.5,4.5H443.7L443.7,87.5z"/>
	<path d="M511.5,65.4V53.6c0-13.7,7.8-22.3,21.2-22.3s21.1,8,21.1,21.8v4.4c0,2.9-1.6,4.5-4.5,4.5h-28.5v5.3c0,8,5.2,12.4,11.9,12.4
		s11.1-2.8,12.1-8.3c0.5-2.5,1.3-3.9,4.2-3.9h0.3c2.2,0,4.4,1,4.4,3.4c0,8.3-7.7,16.6-21,16.6S511.5,78.9,511.5,65.4z M520.8,55.2
		h23.7v-2.7c0-9.3-4.5-13.3-11.8-13.3s-11.9,4.3-11.9,12.5V55.2z"/>
	<path d="M11.9,0h84.7c6.6,0,11.9,5.3,11.9,11.9v84.7c0,6.6-5.3,11.9-11.9,11.9H11.9C5.3,108.5,0,103.2,0,96.6V11.9
		C0,5.3,5.3,0,11.9,0z"/>
	<g id="_Radial_Repeat_">
		<path class="st0" d="M46.4,68L46.4,68c-0.2,0.5-0.5,0.9-0.8,1.3c-1.5,2.2-4,3.6-6.9,3.6H22c0,0.1,8.3-14.4,8.3-14.4
			c1.4-2.5,3.9-4,6.5-4.2c-2.6-0.2-5.1-1.7-6.6-4.1l-8.5-14.4h16.7c2.9-0.2,5.4,1.2,6.9,3.4l0,0c0.3,0.4,0.5,0.8,0.7,1.3
			c0.5,1.1,0.8,2.3,0.8,3.5v6.1l-5.2,3.1c-1.1,0.6-2.2,1-3.4,1.1c1.2,0,2.3,0.4,3.4,1.1l5.3,3v6.1c0,1.2-0.2,2.4-0.7,3.5H46.4z"/>
		<path class="st0" d="M46.4,68L46.4,68c-0.2,0.5-0.5,0.9-0.8,1.3c-1.5,2.2-4,3.6-6.9,3.6H22c0,0.1,8.3-14.4,8.3-14.4
			c1.4-2.5,3.9-4,6.5-4.2c-2.6-0.2-5.1-1.7-6.6-4.1l-8.5-14.4h16.7c2.9-0.2,5.4,1.2,6.9,3.4l0,0c0.3,0.4,0.5,0.8,0.7,1.3
			c0.5,1.1,0.8,2.3,0.8,3.5v6.1l-5.2,3.1c-1.1,0.6-2.2,1-3.4,1.1c1.2,0,2.3,0.4,3.4,1.1l5.3,3v6.1c0,1.2-0.2,2.4-0.7,3.5H46.4z"/>
		<path class="st0" d="M46.4,68L46.4,68c-0.2,0.5-0.5,0.9-0.8,1.3c-1.5,2.2-4,3.6-6.9,3.6H22c0,0.1,8.3-14.4,8.3-14.4
			c1.4-2.5,3.9-4,6.5-4.2c-2.6-0.2-5.1-1.7-6.6-4.1l-8.5-14.4h16.7c2.9-0.2,5.4,1.2,6.9,3.4l0,0c0.3,0.4,0.5,0.8,0.7,1.3
			c0.5,1.1,0.8,2.3,0.8,3.5v6.1l-5.2,3.1c-1.1,0.6-2.2,1-3.4,1.1c1.2,0,2.3,0.4,3.4,1.1l5.3,3v6.1c0,1.2-0.2,2.4-0.7,3.5H46.4z"/>
		<path class="st0" d="M46.4,68L46.4,68c-0.2,0.5-0.5,0.9-0.8,1.3c-1.5,2.2-4,3.6-6.9,3.6H22c0,0.1,8.3-14.4,8.3-14.4
			c1.4-2.5,3.9-4,6.5-4.2c-2.6-0.2-5.1-1.7-6.6-4.1l-8.5-14.4h16.7c2.9-0.2,5.4,1.2,6.9,3.4l0,0c0.3,0.4,0.5,0.8,0.7,1.3
			c0.5,1.1,0.8,2.3,0.8,3.5v6.1l-5.2,3.1c-1.1,0.6-2.2,1-3.4,1.1c1.2,0,2.3,0.4,3.4,1.1l5.3,3v6.1c0,1.2-0.2,2.4-0.7,3.5H46.4z"/>
		<path class="st0" d="M46.4,68L46.4,68c-0.2,0.5-0.5,0.9-0.8,1.3c-1.5,2.2-4,3.6-6.9,3.6H22c0,0.1,8.3-14.4,8.3-14.4
			c1.4-2.5,3.9-4,6.5-4.2c-2.6-0.2-5.1-1.7-6.6-4.1l-8.5-14.4h16.7c2.9-0.2,5.4,1.2,6.9,3.4l0,0c0.3,0.4,0.5,0.8,0.7,1.3
			c0.5,1.1,0.8,2.3,0.8,3.5v6.1l-5.2,3.1c-1.1,0.6-2.2,1-3.4,1.1c1.2,0,2.3,0.4,3.4,1.1l5.3,3v6.1c0,1.2-0.2,2.4-0.7,3.5H46.4z"/>
		<path class="st0" d="M46.4,68L46.4,68c-0.2,0.5-0.5,0.9-0.8,1.3c-1.5,2.2-4,3.6-6.9,3.6H22c0,0.1,8.3-14.4,8.3-14.4
			c1.4-2.5,3.9-4,6.5-4.2c-2.6-0.2-5.1-1.7-6.6-4.1l-8.5-14.4h16.7c2.9-0.2,5.4,1.2,6.9,3.4l0,0c0.3,0.4,0.5,0.8,0.7,1.3
			c0.5,1.1,0.8,2.3,0.8,3.5v6.1l-5.2,3.1c-1.1,0.6-2.2,1-3.4,1.1c1.2,0,2.3,0.4,3.4,1.1l5.3,3v6.1c0,1.2-0.2,2.4-0.7,3.5H46.4z"/>
	</g>
	<g id="_Radial_Repeat_-2">
		<path class="st0" d="M62.8,39.1L62.8,39.1c-0.2,0.4-0.4,0.9-0.7,1.3l0,0c-0.7,1-1.5,1.8-2.6,2.4l-5.3,3.1l-5.3-3
			c-1.1-0.6-2-1.4-2.7-2.4c0.5,1.1,0.8,2.3,0.8,3.5v6.1l-5.2,3.1c-1.1,0.6-2.2,1-3.4,1.1l0,0c-0.5,0-1,0-1.5,0l0,0
			c-2.6-0.2-5.1-1.7-6.6-4.1l-8.5-14.4h16.7c2.9-0.2,5.4,1.2,6.9,3.4c-1.2-2.4-1.2-5.3,0.3-7.8L54,16.8l8.5,14.4
			c1.5,2.4,1.5,5.3,0.4,7.8L62.8,39.1z"/>
		<path class="st0" d="M62.8,39.1L62.8,39.1c-0.2,0.4-0.4,0.9-0.7,1.3l0,0c-0.7,1-1.5,1.8-2.6,2.4l-5.3,3.1l-5.3-3
			c-1.1-0.6-2-1.4-2.7-2.4c0.5,1.1,0.8,2.3,0.8,3.5v6.1l-5.2,3.1c-1.1,0.6-2.2,1-3.4,1.1l0,0c-0.5,0-1,0-1.5,0l0,0
			c-2.6-0.2-5.1-1.7-6.6-4.1l-8.5-14.4h16.7c2.9-0.2,5.4,1.2,6.9,3.4c-1.2-2.4-1.2-5.3,0.3-7.8L54,16.8l8.5,14.4
			c1.5,2.4,1.5,5.3,0.4,7.8L62.8,39.1z"/>
		<path class="st0" d="M62.8,39.1L62.8,39.1c-0.2,0.4-0.4,0.9-0.7,1.3l0,0c-0.7,1-1.5,1.8-2.6,2.4l-5.3,3.1l-5.3-3
			c-1.1-0.6-2-1.4-2.7-2.4c0.5,1.1,0.8,2.3,0.8,3.5v6.1l-5.2,3.1c-1.1,0.6-2.2,1-3.4,1.1l0,0c-0.5,0-1,0-1.5,0l0,0
			c-2.6-0.2-5.1-1.7-6.6-4.1l-8.5-14.4h16.7c2.9-0.2,5.4,1.2,6.9,3.4c-1.2-2.4-1.2-5.3,0.3-7.8L54,16.8l8.5,14.4
			c1.5,2.4,1.5,5.3,0.4,7.8L62.8,39.1z"/>
		<path class="st0" d="M62.8,39.1L62.8,39.1c-0.2,0.4-0.4,0.9-0.7,1.3l0,0c-0.7,1-1.5,1.8-2.6,2.4l-5.3,3.1l-5.3-3
			c-1.1-0.6-2-1.4-2.7-2.4c0.5,1.1,0.8,2.3,0.8,3.5v6.1l-5.2,3.1c-1.1,0.6-2.2,1-3.4,1.1l0,0c-0.5,0-1,0-1.5,0l0,0
			c-2.6-0.2-5.1-1.7-6.6-4.1l-8.5-14.4h16.7c2.9-0.2,5.4,1.2,6.9,3.4c-1.2-2.4-1.2-5.3,0.3-7.8L54,16.8l8.5,14.4
			c1.5,2.4,1.5,5.3,0.4,7.8L62.8,39.1z"/>
		<path class="st0" d="M62.8,39.1L62.8,39.1c-0.2,0.4-0.4,0.9-0.7,1.3l0,0c-0.7,1-1.5,1.8-2.6,2.4l-5.3,3.1l-5.3-3
			c-1.1-0.6-2-1.4-2.7-2.4c0.5,1.1,0.8,2.3,0.8,3.5v6.1l-5.2,3.1c-1.1,0.6-2.2,1-3.4,1.1l0,0c-0.5,0-1,0-1.5,0l0,0
			c-2.6-0.2-5.1-1.7-6.6-4.1l-8.5-14.4h16.7c2.9-0.2,5.4,1.2,6.9,3.4c-1.2-2.4-1.2-5.3,0.3-7.8L54,16.8l8.5,14.4
			c1.5,2.4,1.5,5.3,0.4,7.8L62.8,39.1z"/>
		<path class="st0" d="M62.8,39.1L62.8,39.1c-0.2,0.4-0.4,0.9-0.7,1.3l0,0c-0.7,1-1.5,1.8-2.6,2.4l-5.3,3.1l-5.3-3
			c-1.1-0.6-2-1.4-2.7-2.4c0.5,1.1,0.8,2.3,0.8,3.5v6.1l-5.2,3.1c-1.1,0.6-2.2,1-3.4,1.1l0,0c-0.5,0-1,0-1.5,0l0,0
			c-2.6-0.2-5.1-1.7-6.6-4.1l-8.5-14.4h16.7c2.9-0.2,5.4,1.2,6.9,3.4c-1.2-2.4-1.2-5.3,0.3-7.8L54,16.8l8.5,14.4
			c1.5,2.4,1.5,5.3,0.4,7.8L62.8,39.1z"/>
	</g>
	<g id="_Radial_Repeat_-3">
		<path class="st0" d="M86.4,35.3l-8.3,14.6c-1.4,2.5-3.9,4-6.6,4.2l0,0c-0.5,0-1,0-1.5,0l0,0c-1.2,0-2.4-0.5-3.4-1.1l-5.3-3v-6.1
			c0-1.2,0.2-2.4,0.7-3.5c-0.7,1-1.5,1.8-2.6,2.4l-5.3,3.1l-5.3-3c-1.1-0.6-2-1.4-2.7-2.4c-0.3-0.4-0.5-0.8-0.7-1.3l0,0
			c-1.2-2.4-1.2-5.3,0.3-7.8L54,16.8l8.5,14.4c1.5,2.4,1.5,5.3,0.4,7.8c1.5-2.2,4-3.6,6.9-3.7L86.4,35.3L86.4,35.3z"/>
		<path class="st0" d="M86.4,35.3l-8.3,14.6c-1.4,2.5-3.9,4-6.6,4.2l0,0c-0.5,0-1,0-1.5,0l0,0c-1.2,0-2.4-0.5-3.4-1.1l-5.3-3v-6.1
			c0-1.2,0.2-2.4,0.7-3.5c-0.7,1-1.5,1.8-2.6,2.4l-5.3,3.1l-5.3-3c-1.1-0.6-2-1.4-2.7-2.4c-0.3-0.4-0.5-0.8-0.7-1.3l0,0
			c-1.2-2.4-1.2-5.3,0.3-7.8L54,16.8l8.5,14.4c1.5,2.4,1.5,5.3,0.4,7.8c1.5-2.2,4-3.6,6.9-3.7L86.4,35.3L86.4,35.3z"/>
		<path class="st0" d="M86.4,35.3l-8.3,14.6c-1.4,2.5-3.9,4-6.6,4.2l0,0c-0.5,0-1,0-1.5,0l0,0c-1.2,0-2.4-0.5-3.4-1.1l-5.3-3v-6.1
			c0-1.2,0.2-2.4,0.7-3.5c-0.7,1-1.5,1.8-2.6,2.4l-5.3,3.1l-5.3-3c-1.1-0.6-2-1.4-2.7-2.4c-0.3-0.4-0.5-0.8-0.7-1.3l0,0
			c-1.2-2.4-1.2-5.3,0.3-7.8L54,16.8l8.5,14.4c1.5,2.4,1.5,5.3,0.4,7.8c1.5-2.2,4-3.6,6.9-3.7L86.4,35.3L86.4,35.3z"/>
		<path class="st0" d="M86.4,35.3l-8.3,14.6c-1.4,2.5-3.9,4-6.6,4.2l0,0c-0.5,0-1,0-1.5,0l0,0c-1.2,0-2.4-0.5-3.4-1.1l-5.3-3v-6.1
			c0-1.2,0.2-2.4,0.7-3.5c-0.7,1-1.5,1.8-2.6,2.4l-5.3,3.1l-5.3-3c-1.1-0.6-2-1.4-2.7-2.4c-0.3-0.4-0.5-0.8-0.7-1.3l0,0
			c-1.2-2.4-1.2-5.3,0.3-7.8L54,16.8l8.5,14.4c1.5,2.4,1.5,5.3,0.4,7.8c1.5-2.2,4-3.6,6.9-3.7L86.4,35.3L86.4,35.3z"/>
		<path class="st0" d="M86.4,35.3l-8.3,14.6c-1.4,2.5-3.9,4-6.6,4.2l0,0c-0.5,0-1,0-1.5,0l0,0c-1.2,0-2.4-0.5-3.4-1.1l-5.3-3v-6.1
			c0-1.2,0.2-2.4,0.7-3.5c-0.7,1-1.5,1.8-2.6,2.4l-5.3,3.1l-5.3-3c-1.1-0.6-2-1.4-2.7-2.4c-0.3-0.4-0.5-0.8-0.7-1.3l0,0
			c-1.2-2.4-1.2-5.3,0.3-7.8L54,16.8l8.5,14.4c1.5,2.4,1.5,5.3,0.4,7.8c1.5-2.2,4-3.6,6.9-3.7L86.4,35.3L86.4,35.3z"/>
		<path class="st0" d="M86.4,35.3l-8.3,14.6c-1.4,2.5-3.9,4-6.6,4.2l0,0c-0.5,0-1,0-1.5,0l0,0c-1.2,0-2.4-0.5-3.4-1.1l-5.3-3v-6.1
			c0-1.2,0.2-2.4,0.7-3.5c-0.7,1-1.5,1.8-2.6,2.4l-5.3,3.1l-5.3-3c-1.1-0.6-2-1.4-2.7-2.4c-0.3-0.4-0.5-0.8-0.7-1.3l0,0
			c-1.2-2.4-1.2-5.3,0.3-7.8L54,16.8l8.5,14.4c1.5,2.4,1.5,5.3,0.4,7.8c1.5-2.2,4-3.6,6.9-3.7L86.4,35.3L86.4,35.3z"/>
	</g>
	<g id="_Radial_Repeat_-4">
		<path class="st0" d="M86.7,72.7H70c-2.9,0.2-5.4-1.3-6.9-3.4l0,0c-0.3-0.4-0.5-0.8-0.7-1.3c-0.5-1.1-0.8-2.3-0.8-3.5v-6.1l5.2-3.1
			c1.1-0.6,2.2-1,3.4-1.1c-1.2,0-2.4-0.5-3.4-1.1l-5.3-3V44c0-1.2,0.2-2.4,0.7-3.5l0,0c0.2-0.4,0.5-0.9,0.7-1.3l0,0
			c1.5-2.2,4-3.6,6.9-3.7h16.7c0-0.1-8.3,14.4-8.3,14.4c-1.4,2.5-3.9,4-6.6,4.2c2.7,0.2,5.2,1.7,6.6,4.1L86.7,72.7L86.7,72.7z"/>
		<path class="st0" d="M86.7,72.7H70c-2.9,0.2-5.4-1.3-6.9-3.4l0,0c-0.3-0.4-0.5-0.8-0.7-1.3c-0.5-1.1-0.8-2.3-0.8-3.5v-6.1l5.2-3.1
			c1.1-0.6,2.2-1,3.4-1.1c-1.2,0-2.4-0.5-3.4-1.1l-5.3-3V44c0-1.2,0.2-2.4,0.7-3.5l0,0c0.2-0.4,0.5-0.9,0.7-1.3l0,0
			c1.5-2.2,4-3.6,6.9-3.7h16.7c0-0.1-8.3,14.4-8.3,14.4c-1.4,2.5-3.9,4-6.6,4.2c2.7,0.2,5.2,1.7,6.6,4.1L86.7,72.7L86.7,72.7z"/>
		<path class="st0" d="M86.7,72.7H70c-2.9,0.2-5.4-1.3-6.9-3.4l0,0c-0.3-0.4-0.5-0.8-0.7-1.3c-0.5-1.1-0.8-2.3-0.8-3.5v-6.1l5.2-3.1
			c1.1-0.6,2.2-1,3.4-1.1c-1.2,0-2.4-0.5-3.4-1.1l-5.3-3V44c0-1.2,0.2-2.4,0.7-3.5l0,0c0.2-0.4,0.5-0.9,0.7-1.3l0,0
			c1.5-2.2,4-3.6,6.9-3.7h16.7c0-0.1-8.3,14.4-8.3,14.4c-1.4,2.5-3.9,4-6.6,4.2c2.7,0.2,5.2,1.7,6.6,4.1L86.7,72.7L86.7,72.7z"/>
		<path class="st0" d="M86.7,72.7H70c-2.9,0.2-5.4-1.3-6.9-3.4l0,0c-0.3-0.4-0.5-0.8-0.7-1.3c-0.5-1.1-0.8-2.3-0.8-3.5v-6.1l5.2-3.1
			c1.1-0.6,2.2-1,3.4-1.1c-1.2,0-2.4-0.5-3.4-1.1l-5.3-3V44c0-1.2,0.2-2.4,0.7-3.5l0,0c0.2-0.4,0.5-0.9,0.7-1.3l0,0
			c1.5-2.2,4-3.6,6.9-3.7h16.7c0-0.1-8.3,14.4-8.3,14.4c-1.4,2.5-3.9,4-6.6,4.2c2.7,0.2,5.2,1.7,6.6,4.1L86.7,72.7L86.7,72.7z"/>
		<path class="st0" d="M86.7,72.7H70c-2.9,0.2-5.4-1.3-6.9-3.4l0,0c-0.3-0.4-0.5-0.8-0.7-1.3c-0.5-1.1-0.8-2.3-0.8-3.5v-6.1l5.2-3.1
			c1.1-0.6,2.2-1,3.4-1.1c-1.2,0-2.4-0.5-3.4-1.1l-5.3-3V44c0-1.2,0.2-2.4,0.7-3.5l0,0c0.2-0.4,0.5-0.9,0.7-1.3l0,0
			c1.5-2.2,4-3.6,6.9-3.7h16.7c0-0.1-8.3,14.4-8.3,14.4c-1.4,2.5-3.9,4-6.6,4.2c2.7,0.2,5.2,1.7,6.6,4.1L86.7,72.7L86.7,72.7z"/>
		<path class="st0" d="M86.7,72.7H70c-2.9,0.2-5.4-1.3-6.9-3.4l0,0c-0.3-0.4-0.5-0.8-0.7-1.3c-0.5-1.1-0.8-2.3-0.8-3.5v-6.1l5.2-3.1
			c1.1-0.6,2.2-1,3.4-1.1c-1.2,0-2.4-0.5-3.4-1.1l-5.3-3V44c0-1.2,0.2-2.4,0.7-3.5l0,0c0.2-0.4,0.5-0.9,0.7-1.3l0,0
			c1.5-2.2,4-3.6,6.9-3.7h16.7c0-0.1-8.3,14.4-8.3,14.4c-1.4,2.5-3.9,4-6.6,4.2c2.7,0.2,5.2,1.7,6.6,4.1L86.7,72.7L86.7,72.7z"/>
	</g>
	<g id="_Radial_Repeat_-5">
		<path class="st0" d="M86.7,72.7H70c-2.9,0.2-5.4-1.3-6.9-3.4c1.2,2.4,1.2,5.3-0.3,7.8l-8.3,14.6L46,77.3c-1.4-2.4-1.5-5.3-0.4-7.8
			c0.2-0.5,0.5-0.9,0.8-1.3l0,0c0.7-1,1.5-1.8,2.6-2.4l5.3-3.1l5.3,3c1.1,0.6,2,1.4,2.7,2.4c-0.5-1.1-0.8-2.3-0.8-3.5v-6.1l5.2-3.1
			c1.1-0.6,2.2-1,3.4-1.1l0,0c0.5,0,1,0,1.5,0l0,0c2.7,0.2,5.2,1.7,6.6,4.1L86.7,72.7L86.7,72.7z"/>
		<path class="st0" d="M86.7,72.7H70c-2.9,0.2-5.4-1.3-6.9-3.4c1.2,2.4,1.2,5.3-0.3,7.8l-8.3,14.6L46,77.3c-1.4-2.4-1.5-5.3-0.4-7.8
			c0.2-0.5,0.5-0.9,0.8-1.3l0,0c0.7-1,1.5-1.8,2.6-2.4l5.3-3.1l5.3,3c1.1,0.6,2,1.4,2.7,2.4c-0.5-1.1-0.8-2.3-0.8-3.5v-6.1l5.2-3.1
			c1.1-0.6,2.2-1,3.4-1.1l0,0c0.5,0,1,0,1.5,0l0,0c2.7,0.2,5.2,1.7,6.6,4.1L86.7,72.7L86.7,72.7z"/>
		<path class="st0" d="M86.7,72.7H70c-2.9,0.2-5.4-1.3-6.9-3.4c1.2,2.4,1.2,5.3-0.3,7.8l-8.3,14.6L46,77.3c-1.4-2.4-1.5-5.3-0.4-7.8
			c0.2-0.5,0.5-0.9,0.8-1.3l0,0c0.7-1,1.5-1.8,2.6-2.4l5.3-3.1l5.3,3c1.1,0.6,2,1.4,2.7,2.4c-0.5-1.1-0.8-2.3-0.8-3.5v-6.1l5.2-3.1
			c1.1-0.6,2.2-1,3.4-1.1l0,0c0.5,0,1,0,1.5,0l0,0c2.7,0.2,5.2,1.7,6.6,4.1L86.7,72.7L86.7,72.7z"/>
		<path class="st0" d="M86.7,72.7H70c-2.9,0.2-5.4-1.3-6.9-3.4c1.2,2.4,1.2,5.3-0.3,7.8l-8.3,14.6L46,77.3c-1.4-2.4-1.5-5.3-0.4-7.8
			c0.2-0.5,0.5-0.9,0.8-1.3l0,0c0.7-1,1.5-1.8,2.6-2.4l5.3-3.1l5.3,3c1.1,0.6,2,1.4,2.7,2.4c-0.5-1.1-0.8-2.3-0.8-3.5v-6.1l5.2-3.1
			c1.1-0.6,2.2-1,3.4-1.1l0,0c0.5,0,1,0,1.5,0l0,0c2.7,0.2,5.2,1.7,6.6,4.1L86.7,72.7L86.7,72.7z"/>
		<path class="st0" d="M86.7,72.7H70c-2.9,0.2-5.4-1.3-6.9-3.4c1.2,2.4,1.2,5.3-0.3,7.8l-8.3,14.6L46,77.3c-1.4-2.4-1.5-5.3-0.4-7.8
			c0.2-0.5,0.5-0.9,0.8-1.3l0,0c0.7-1,1.5-1.8,2.6-2.4l5.3-3.1l5.3,3c1.1,0.6,2,1.4,2.7,2.4c-0.5-1.1-0.8-2.3-0.8-3.5v-6.1l5.2-3.1
			c1.1-0.6,2.2-1,3.4-1.1l0,0c0.5,0,1,0,1.5,0l0,0c2.7,0.2,5.2,1.7,6.6,4.1L86.7,72.7L86.7,72.7z"/>
		<path class="st0" d="M86.7,72.7H70c-2.9,0.2-5.4-1.3-6.9-3.4c1.2,2.4,1.2,5.3-0.3,7.8l-8.3,14.6L46,77.3c-1.4-2.4-1.5-5.3-0.4-7.8
			c0.2-0.5,0.5-0.9,0.8-1.3l0,0c0.7-1,1.5-1.8,2.6-2.4l5.3-3.1l5.3,3c1.1,0.6,2,1.4,2.7,2.4c-0.5-1.1-0.8-2.3-0.8-3.5v-6.1l5.2-3.1
			c1.1-0.6,2.2-1,3.4-1.1l0,0c0.5,0,1,0,1.5,0l0,0c2.7,0.2,5.2,1.7,6.6,4.1L86.7,72.7L86.7,72.7z"/>
	</g>
	<g id="_Radial_Repeat_-6">
		<path class="st0" d="M62.8,77l-8.3,14.6L46,77.2c-1.4-2.4-1.5-5.3-0.4-7.8c-1.5,2.2-4,3.6-6.9,3.6H22c0,0.1,8.3-14.4,8.3-14.4
			c1.4-2.5,3.9-4,6.5-4.2l0,0c0.5,0,1,0,1.5,0l0,0c1.2,0,2.3,0.5,3.4,1.1l5.3,3v6.1c0,1.2-0.2,2.4-0.7,3.5c0.7-1,1.5-1.8,2.6-2.4
			l5.3-3.1l5.3,3c1.1,0.6,2,1.4,2.7,2.4c0.3,0.4,0.5,0.8,0.7,1.3l0,0c1.2,2.4,1.2,5.3-0.3,7.8L62.8,77z"/>
		<path class="st0" d="M62.8,77l-8.3,14.6L46,77.2c-1.4-2.4-1.5-5.3-0.4-7.8c-1.5,2.2-4,3.6-6.9,3.6H22c0,0.1,8.3-14.4,8.3-14.4
			c1.4-2.5,3.9-4,6.5-4.2l0,0c0.5,0,1,0,1.5,0l0,0c1.2,0,2.3,0.5,3.4,1.1l5.3,3v6.1c0,1.2-0.2,2.4-0.7,3.5c0.7-1,1.5-1.8,2.6-2.4
			l5.3-3.1l5.3,3c1.1,0.6,2,1.4,2.7,2.4c0.3,0.4,0.5,0.8,0.7,1.3l0,0c1.2,2.4,1.2,5.3-0.3,7.8L62.8,77z"/>
		<path class="st0" d="M62.8,77l-8.3,14.6L46,77.2c-1.4-2.4-1.5-5.3-0.4-7.8c-1.5,2.2-4,3.6-6.9,3.6H22c0,0.1,8.3-14.4,8.3-14.4
			c1.4-2.5,3.9-4,6.5-4.2l0,0c0.5,0,1,0,1.5,0l0,0c1.2,0,2.3,0.5,3.4,1.1l5.3,3v6.1c0,1.2-0.2,2.4-0.7,3.5c0.7-1,1.5-1.8,2.6-2.4
			l5.3-3.1l5.3,3c1.1,0.6,2,1.4,2.7,2.4c0.3,0.4,0.5,0.8,0.7,1.3l0,0c1.2,2.4,1.2,5.3-0.3,7.8L62.8,77z"/>
		<path class="st0" d="M62.8,77l-8.3,14.6L46,77.2c-1.4-2.4-1.5-5.3-0.4-7.8c-1.5,2.2-4,3.6-6.9,3.6H22c0,0.1,8.3-14.4,8.3-14.4
			c1.4-2.5,3.9-4,6.5-4.2l0,0c0.5,0,1,0,1.5,0l0,0c1.2,0,2.3,0.5,3.4,1.1l5.3,3v6.1c0,1.2-0.2,2.4-0.7,3.5c0.7-1,1.5-1.8,2.6-2.4
			l5.3-3.1l5.3,3c1.1,0.6,2,1.4,2.7,2.4c0.3,0.4,0.5,0.8,0.7,1.3l0,0c1.2,2.4,1.2,5.3-0.3,7.8L62.8,77z"/>
		<path class="st0" d="M62.8,77l-8.3,14.6L46,77.2c-1.4-2.4-1.5-5.3-0.4-7.8c-1.5,2.2-4,3.6-6.9,3.6H22c0,0.1,8.3-14.4,8.3-14.4
			c1.4-2.5,3.9-4,6.5-4.2l0,0c0.5,0,1,0,1.5,0l0,0c1.2,0,2.3,0.5,3.4,1.1l5.3,3v6.1c0,1.2-0.2,2.4-0.7,3.5c0.7-1,1.5-1.8,2.6-2.4
			l5.3-3.1l5.3,3c1.1,0.6,2,1.4,2.7,2.4c0.3,0.4,0.5,0.8,0.7,1.3l0,0c1.2,2.4,1.2,5.3-0.3,7.8L62.8,77z"/>
		<path class="st0" d="M62.8,77l-8.3,14.6L46,77.2c-1.4-2.4-1.5-5.3-0.4-7.8c-1.5,2.2-4,3.6-6.9,3.6H22c0,0.1,8.3-14.4,8.3-14.4
			c1.4-2.5,3.9-4,6.5-4.2l0,0c0.5,0,1,0,1.5,0l0,0c1.2,0,2.3,0.5,3.4,1.1l5.3,3v6.1c0,1.2-0.2,2.4-0.7,3.5c0.7-1,1.5-1.8,2.6-2.4
			l5.3-3.1l5.3,3c1.1,0.6,2,1.4,2.7,2.4c0.3,0.4,0.5,0.8,0.7,1.3l0,0c1.2,2.4,1.2,5.3-0.3,7.8L62.8,77z"/>
	</g>
</g>
</svg>
